<?xml version="1.0" encoding="UTF-8"?>
<svg id="Layer_2" data-name="Layer 2" xmlns="http://www.w3.org/2000/svg" viewBox="0 0 40.82 43.48">
  <defs>
    <style>
      .cls-1 {
        stroke-width: 1.5px;
      }

      .cls-1, .cls-2, .cls-3, .cls-4 {
        fill: none;
        stroke: #fff;
      }

      .cls-1, .cls-2, .cls-4 {
        stroke-miterlimit: 10;
      }

      .cls-5 {
        fill: #fff;
        opacity: .2;
      }

      .cls-3 {
        stroke-linejoin: round;
        stroke-width: 2px;
      }

      .cls-4 {
        stroke-width: .95px;
      }
    </style>
  </defs>
  <g id="Layer_1-2" data-name="Layer 1">
    <g>
      <g>
        <path class="cls-5" d="m7.38,32.65l.92-15.71,2.06-2.5,3.49-.89,1.73.26c-.5-.48-.93-1.04-1.24-1.67-1.15-2.33-3.52-3.99-6.21-4.12C3.71,7.8-.41,11.15.03,15.7c.23,2.35,1.31,3.98,2.98,5.22,1.65,1.23,2.62,4.09.36,6.59-.51.56-1.2.94-1.67,1.54-3.45,4.52.55,9.72,5.24,8.35,1.54-.45,2.72-1.7,3.21-3.23h0s-2.78-1.52-2.78-1.52Z"/>
        <path class="cls-5" d="m22.47,36.2l-3.44-2.15-7.5,1.26,1.63.73s0,0,0,0c.09.43.1.88,0,1.34-.18.79-.17,1.64.07,2.5.54,1.92,2.24,3.36,4.22,3.57,3.24.35,5.83-2.31,5.57-5.39-.06-.67-.26-1.3-.55-1.86Z"/>
        <path class="cls-5" d="m16.53,14.12l6.77-5.09s5.61-.19,5.61-.19c-.44-.4.8-2.53-.09-4.68-.42-1.01-1.1-1.94-2.04-2.7-2.1-1.69-5.1-1.95-7.45-.63-3.85,2.16-4.69,5.69-2.7,9.17.45.79,1.62,2.64-.09,4.12Z"/>
        <path class="cls-5" d="m40.62,29.68c-.58-2.29-1.9-3.74-3.73-4.71-1.82-.96-3.21-3.64-1.35-6.46.42-.63,1.05-1.11,1.41-1.78,2.72-4.99-2.01-9.53-6.45-7.46-.36.17-.7.38-1,.64l.77,1.44,2.08,2.04.12,19.52-4.17,2.75-1.11-.08c1.51,1.99,4,3.18,6.59,2.91,4.4-.45,7.96-4.38,6.84-8.81Z"/>
      </g>
      <g>
        <path class="cls-1" d="m7.79,17.28c.06-.82,1.59-1.08,1.59-1.08l-.02-1.48c0-.26.12-.5.33-.64.55-.38,1.73-1.03,3.36-1.1,1.78-.07,3.03.57,3.6.95.22.14.49.39.5.65l.02,1.36"/>
        <path class="cls-2" d="m30,11.86s1.91,1.18,2.47,2.35c.42.89,0,18.7,0,18.7,0,0-.68,2.87-6.84,2.75s-6.82-1.91-6.82-1.91c0,0-.05-11.17-.17-16.89-.05-2.32-.06-3.2-.05-3.32.07-1.01,1.96-1.33,1.96-1.33l-.03-1.83c0-.32.15-.61.41-.8.67-.46,2.13-1.28,4.15-1.35,2.2-.08,3.75.71,4.45,1.17.27.17.43.46.44.78l.02,1.68Z"/>
        <path class="cls-3" d="m32.35,13.39c-.47-1.26-2.35-1.53-2.35-1.53l-.02-1.68c0-.32-.17-.61-.44-.78-.71-.46-2.26-1.25-4.45-1.17-2.02.08-3.48.89-4.15,1.35-.26.18-.42.48-.41.8l.03,1.83s-2.35.29-2.42,1.31c0,.11-.03,2.69-.03,2.69-.47-.23-.73-.23-.73-.23l-.02-1.36c0-.26-.47-.57-.69-.71-.57-.37-1.88-.73-3.66-.66-1.64.06-2.76.44-3.31.81-.21.15-.34.39-.33.64l.02,1.48s-1.42.28-1.59,1.08c-.44,2.07-.53,10.9.2,14.64,1.28.92,1.63,1.94,5.37,2.13,3.56,0,4.68-.75,5.33-1.47.24.49,1.91,3.08,6.94,3.08,4.68,0,6.07-1.61,6.84-2.75.5-.73.35-18.26-.12-19.52Z"/>
        <path class="cls-4" d="m17.96,16.21c0,.77-2.28,1.4-4.75,1.4s-4.48-.63-4.48-1.4"/>
        <path class="cls-4" d="m16.75,14.57c0,.61-1.57,1.1-3.52,1.1s-3.52-.49-3.52-1.1"/>
        <path class="cls-2" d="m29.68,12.24c0,.77-1.98,1.39-4.43,1.39s-4.43-.62-4.43-1.39"/>
        <path class="cls-2" d="m29.68,9.47c0,.77-1.98,1.39-4.43,1.39s-4.43-.62-4.43-1.39"/>
      </g>
    </g>
  </g>
</svg>