<?xml version="1.0" encoding="UTF-8"?>
<svg id="Layer_2" data-name="Layer 2" xmlns="http://www.w3.org/2000/svg" viewBox="0 0 42.69 45.38">
  <defs>
    <style>
      .cls-1 {
        fill: #fff;
      }

      .cls-2 {
        fill: none;
        stroke: #fff;
        stroke-miterlimit: 10;
      }

      .cls-3 {
        opacity: .2;
      }
    </style>
  </defs>
  <g id="Layer_1-2" data-name="Layer 1">
    <g>
      <g>
        <path class="cls-1" d="M27.61,20.86c2.59,0,4.76,1.87,5.23,4.33,4.01,1.1,6.97,4.76,6.97,9.11,0,.74-.6,1.35-1.35,1.35s-1.35-.6-1.35-1.35c0-2.93-1.87-5.41-4.48-6.35-.73,2.08-2.71,3.58-5.03,3.58H15.12c-2.19,0-4.09-1.34-4.9-3.25-2.67,.9-4.6,3.43-4.6,6.4,0,.74-.6,1.35-1.35,1.35s-1.35-.6-1.35-1.35c0-4.33,2.93-7.98,6.91-9.1,.31-2.65,2.57-4.72,5.29-4.72h12.49m0-2H15.12c-3.27,0-6.09,2.16-7.01,5.19-4.29,1.73-7.19,5.93-7.19,10.62,0,1.85,1.5,3.35,3.35,3.35s3.35-1.5,3.35-3.35c0-1.51,.72-2.9,1.88-3.78,1.37,1.64,3.42,2.63,5.62,2.63h12.49c2.31,0,4.44-1.09,5.8-2.86,1.06,.89,1.7,2.21,1.7,3.64,0,1.85,1.5,3.35,3.35,3.35s3.35-1.5,3.35-3.35c0-4.75-2.97-8.99-7.34-10.68-1.06-2.82-3.77-4.76-6.86-4.76h0Z"/>
        <path class="cls-2" d="M21.44,20.22c3.27,0,5.95,2.68,5.95,5.95h0c0,3.27-2.68,5.95-5.95,5.95"/>
        <path class="cls-2" d="M17.69,20.22c3.27,0,5.95,2.68,5.95,5.95h0c0,3.27-2.68,5.95-5.95,5.95"/>
        <path class="cls-2" d="M13.93,20.22c3.27,0,5.95,2.68,5.95,5.95h0c0,3.27-2.68,5.95-5.95,5.95"/>
        <path class="cls-1" d="M27.61,20.86c2.93,0,5.33,2.4,5.33,5.33h0c0,2.93-2.4,5.33-5.33,5.33H15.12c-1.95,0-3.45-.75-4.38-2.32,1.03-.38,1.69-1.76,1.43-2.85-.2-.83-1.15-1.7-2.08-1.7-.06,0-.13,0-.19,.01,.51-2.41,2.67-3.81,5.23-3.81h12.49m0-1H15.12c-3.13,0-5.63,1.85-6.2,4.6l-.29,1.38,1.4-.19s.04,0,.06,0c.44,0,1.01,.54,1.11,.94,.15,.61-.26,1.47-.8,1.67l-1.13,.42,.61,1.03c1.09,1.84,2.9,2.81,5.24,2.81h12.49c3.49,0,6.33-2.84,6.33-6.33s-2.84-6.33-6.33-6.33h0Z"/>
      </g>
      <g class="cls-3">
        <path class="cls-1" d="M32.64,27.94c-.73,2.08-2.71,3.58-5.03,3.58h-6.57v12.16c0,1.6,2.01,2.3,3.01,1.06l11.7-14.49c-.79-1.04-1.86-1.86-3.11-2.31Z"/>
        <path class="cls-1" d="M41.32,19.41l-16.23-3.2c-.79-.15-1.36-.84-1.36-1.64l-.14-12.9c-.02-1.52-1.87-2.25-2.92-1.15L.47,21.78c-.92,.96-.41,2.56,.89,2.82l7.17,1.45c.42-.19,.85-.35,1.29-.47,.31-2.65,2.57-4.72,5.29-4.72h12.49c2.59,0,4.76,1.87,5.23,4.33,1.83,.5,3.43,1.54,4.64,2.92l4.82-5.98c.8-.99,.26-2.48-.99-2.72Z"/>
      </g>
    </g>
  </g>
</svg>