<?xml version="1.0" encoding="UTF-8"?>
<svg id="Layer_2" data-name="Layer 2" xmlns="http://www.w3.org/2000/svg" viewBox="0 0 38.67 39.26">
  <defs>
    <style>
      .cls-1 {
        fill: #fff;
        opacity: .2;
      }

      .cls-2 {
        fill: none;
        stroke: #fff;
        stroke-linejoin: round;
        stroke-width: 2px;
      }
    </style>
  </defs>
  <g id="Layer_1-2" data-name="Layer 1">
    <g>
      <g>
        <path class="cls-1" d="M1,25.2h.75c-.07-.19-.14-.38-.21-.57l-.54,.57Z"/>
        <path class="cls-1" d="M37.14,24.63c-.06,.19-.14,.38-.21,.57h.75l-.54-.57Z"/>
        <path class="cls-1" d="M37.14,24.63c.61-1.85,.95-3.82,.95-5.88C38.09,8.4,29.69,0,19.34,0S.58,8.4,.58,18.75c0,2.06,.34,4.03,.95,5.88L19.34,5.86l17.8,18.77Z"/>
        <path class="cls-1" d="M1.75,25.2c1.23,3.37,3.4,6.28,6.19,8.42v-8.42H1.75Z"/>
        <path class="cls-1" d="M19.34,25.2c-2.49,0-4.53,2.04-4.53,4.53v7.2c1.45,.36,2.97,.58,4.53,.58s3.08-.21,4.53-.58v-7.2c0-2.49-2.04-4.53-4.53-4.53Z"/>
        <path class="cls-1" d="M30.74,33.62c2.79-2.15,4.96-5.05,6.19-8.42h-6.19v8.42Z"/>
      </g>
      <path class="cls-2" d="M19.34,5.86L1,25.2H7.94v13.06h6.86v-8.53c0-2.49,2.04-4.53,4.53-4.53s4.53,2.04,4.53,4.53v8.53h6.86v-13.06h6.94L19.34,5.86Z"/>
    </g>
  </g>
</svg>