<?xml version="1.0" encoding="UTF-8"?>
<svg id="Layer_2" data-name="Layer 2" xmlns="http://www.w3.org/2000/svg" viewBox="0 0 50.52 48.19">
  <defs>
    <style>
      .cls-1 {
        fill: none;
        stroke: #fff;
        stroke-linejoin: round;
      }

      .cls-2 {
        fill: #fff;
      }

      .cls-3 {
        opacity: .2;
      }
    </style>
  </defs>
  <g id="Layer_1-2" data-name="Layer 1">
    <g>
      <g class="cls-3">
        <path class="cls-2" d="M10.62,37.93l-1.48,8.63c-.2,1.14,1,2.01,2.03,1.47l10.24-5.38-10.79-4.71Z"/>
        <path class="cls-2" d="M39.84,37.53l-11.16,4.88,10.68,5.62c1.02,.54,2.22-.33,2.03-1.47l-1.55-9.02Z"/>
        <path class="cls-2" d="M49.33,17.35l-15.04-2.18c-.45-.07-.85-.35-1.05-.76L26.51,.78c-.51-1.04-1.99-1.04-2.5,0l-6.72,13.63c-.2,.41-.6,.7-1.05,.76L1.2,17.35c-1.15,.17-1.6,1.57-.77,2.38l7.26,7.07,3.47-1.58v-2.69l4.29-1.95,2.96,1.35,2.13-.97v-2.16l4.29-1.95,4.29,1.95v2.21l1.57,.71,3.69-1.68,4.29,1.95v3.35l3.4,1.54v.68l8.04-7.84c.83-.81,.37-2.22-.77-2.38Z"/>
      </g>
      <g>
        <path class="cls-2" d="M24.82,16.86l4.29,1.95v2.21l1.57,.71,3.69-1.68,4.29,1.95v3.35l3.4,1.54v9.67l-17.28,7.55-17.28-7.55v-9.67l3.66-1.66v-2.69l4.29-1.95,2.96,1.35,2.13-.97v-2.16l4.29-1.95m0-2c-.28,0-.56,.06-.83,.18l-4.29,1.95c-.71,.32-1.17,1.04-1.17,1.82v.88l-.13,.06-2.14-.97c-.26-.12-.54-.18-.83-.18s-.56,.06-.83,.18l-4.29,1.95c-.71,.32-1.17,1.04-1.17,1.82v1.4l-2.49,1.13c-.71,.32-1.17,1.04-1.17,1.82v9.67c0,.79,.47,1.51,1.2,1.83l17.28,7.55c.26,.11,.53,.17,.8,.17s.55-.06,.8-.17l17.28-7.55c.73-.32,1.2-1.04,1.2-1.83v-9.67c0-.78-.46-1.5-1.17-1.82l-2.23-1.01v-2.06c0-.78-.46-1.5-1.17-1.82l-4.29-1.95c-.26-.12-.54-.18-.83-.18s-.56,.06-.83,.18l-2.43,1.11v-.53c0-.78-.46-1.5-1.17-1.82l-4.29-1.95c-.26-.12-.54-.18-.83-.18h0Z"/>
        <polyline class="cls-1" points="25.81 24.77 29.56 23.13 29.56 18.49 24.9 16.37 20.23 18.49 20.23 23.13 24.13 24.83"/>
        <path class="cls-2" d="M15.44,20.59l4.29,1.95v4.26l-4.29,1.87-4.29-1.87v-4.26l4.29-1.95m0-1c-.14,0-.28,.03-.41,.09l-4.29,1.95c-.36,.16-.59,.52-.59,.91v4.26c0,.4,.24,.76,.6,.92l4.29,1.87c.13,.06,.26,.08,.4,.08s.27-.03,.4-.08l4.29-1.87c.36-.16,.6-.52,.6-.92v-4.26c0-.39-.23-.75-.59-.91l-4.29-1.95c-.13-.06-.27-.09-.41-.09h0Z"/>
        <path class="cls-2" d="M34.37,20.05l4.29,1.95v4.26l-4.29,1.87-4.29-1.87v-4.26l4.29-1.95m0-1c-.14,0-.28,.03-.41,.09l-4.29,1.95c-.36,.16-.59,.52-.59,.91v4.26c0,.4,.24,.76,.6,.92l4.29,1.87c.13,.06,.26,.08,.4,.08s.27-.03,.4-.08l4.29-1.87c.36-.16,.6-.52,.6-.92v-4.26c0-.39-.23-.75-.59-.91l-4.29-1.95c-.13-.06-.27-.09-.41-.09h0Z"/>
        <path class="cls-2" d="M24.9,24.9l4.15,1.88v4.13l-4.15,1.81-4.15-1.81v-4.13l4.15-1.88m0-1c-.14,0-.28,.03-.41,.09l-4.15,1.88c-.36,.16-.59,.52-.59,.91v4.13c0,.4,.24,.76,.6,.92l4.15,1.81c.13,.06,.26,.08,.4,.08s.27-.03,.4-.08l4.15-1.81c.36-.16,.6-.52,.6-.92v-4.13c0-.39-.23-.75-.59-.91l-4.15-1.88c-.13-.06-.27-.09-.41-.09h0Z"/>
      </g>
    </g>
  </g>
</svg>